PathFileType	4	(X/Y/Z)	Patient4_TMGait_0pt3_01_right_11.trc.trc
DataRate	CameraRate	NumFrames	NumMarkers	Units	OrigDataRate	OrigDataStartFrame	OrigNumFrames
51.282051282051	51.282051282051	4	33	mm	51.282051282051	18	       141
Frame#	Time	Sacral			L.Shoulder			Chest			R.Shoulder			Neck			R.ASIS			L.ASIS			R.Thigh.Superior			R.Thigh.Lateral			R.Thigh.Inferior			R.Patella			L.Thigh.Superior			L.Thigh.Lateral			L.Thigh.Inferior			L.Patella			L.Shank.Superior			L.Shank.Lateral			L.Shank.Inferior			R.Shank.Superior			R.Shank.Lateral			R.Shank.Inferior			R.Heel			R.Midfoot.Superior			R.Midfoot.Lateral			R.Toe			L.Heel			L.Midfoot.Lateral			L.Midfoot.Superior			L.Toe			L.Elbow			L.Wrist			R.Elbow			R.Wrist			
		X1	Y1	Z1	X2	Y2	Z2	X3	Y3	Z3	X4	Y4	Z4	X5	Y5	Z5	X6	Y6	Z6	X7	Y7	Z7	X8	Y8	Z8	X9	Y9	Z9	X10	Y10	Z10	X11	Y11	Z11	X12	Y12	Z12	X13	Y13	Z13	X14	Y14	Z14	X15	Y15	Z15	X16	Y16	Z16	X17	Y17	Z17	X18	Y18	Z18	X19	Y19	Z19	X20	Y20	Z20	X21	Y21	Z21	X22	Y22	Z22	X23	Y23	Z23	X24	Y24	Z24	X25	Y25	Z25	X26	Y26	Z26	X27	Y27	Z27	X28	Y28	Z28	X29	Y29	Z29	X30	Y30	Z30	X31	Y31	Z31	X32	Y32	Z32	X33	Y33	Z33	

18	19.701500000000	604.689444297589	1014.156277680882	394.671470611174	834.538187456587	1435.275613833375	248.639683656576	910.037969390698	1356.694787690955	419.673937417752	807.598326870281	1431.539473132139	582.695759244445	800.518502790888	1493.739052567025	409.231793471629	814.305915723093	942.874487071083	541.770896825167	835.983111266551	954.780105459959	268.375131141881	878.280081786083	761.692594734246	518.603147870042	822.236488774001	646.788888401522	589.371277400643	908.923993500028	599.907910519297	513.959430528545	930.999313516579	507.506940212392	539.181358450883	855.451886952738	732.554424215517	305.886436101232	757.690366023403	625.756713548224	237.435719652368	822.748621428719	539.525138503003	310.673719203027	812.961996005617	468.834763639472	318.934552405602	770.207847086124	401.741363795832	306.656224594338	663.201132115002	306.951253061375	251.185404115185	686.905559266441	187.981390046141	322.124197177804	889.823092806362	420.866409623252	548.860360962119	802.059658497561	329.160998599554	607.313929483827	847.241348568891	226.755840220645	562.071218238338	710.121302056339	65.843145144296	526.109460308048	879.076480130115	113.026900104848	584.023957629921	785.088765703426	51.320315862168	607.662854872990	990.366569660319	55.873215850828	621.435198793145	532.636509427581	47.104169209386	358.052597969054	605.987944646296	39.671007308354	278.001028899267	693.181735137456	96.622016004572	304.638693126415	817.155751819250	37.754441141088	272.263003185816	914.271109235074	1133.710649166527	70.232018118946	1170.728155198431	1110.526845654037	89.359621861994	682.007002495065	1102.041307557341	684.199088016818	682.711805181851	841.163306863041	695.582459212951	
19	19.721000000000	605.967240654372	1013.651423042263	397.324839151720	837.054838206876	1434.513717737693	253.063763939222	910.446277355407	1356.491703809865	425.269714746329	805.858719496859	1431.851893817311	586.746580416720	800.955270293850	1493.332320654782	413.043096079879	814.029358929552	942.678089395159	546.821813133420	838.388505481893	954.098638417032	273.590421479116	877.115440903175	760.873636538698	524.342651813297	819.958983552398	645.940355491339	594.243503328712	906.851862049948	599.365908442677	519.165544246902	929.547541313197	509.377202148019	543.287781628034	854.023108709543	730.692154397562	310.579184365227	755.145622114190	625.873330550251	239.944833454634	817.802554630961	538.362976700205	313.371800232598	806.742096257266	468.153040588620	321.156293066886	764.300775178351	401.504920118401	308.253206877249	657.352950511290	307.020652471860	251.959641305753	680.803077160057	187.734832077894	322.588689223658	893.406684121842	421.472304138899	553.062870934554	811.696333448532	324.455422983145	612.967168651775	862.045671791070	224.508905634273	566.709928180337	732.675909984024	57.103975851423	532.697657425000	901.025734429314	111.013434823879	587.767880374737	809.885703783340	45.069609289377	612.740489116779	1015.708283978217	58.204018762555	622.774680954660	526.614016045876	46.671087750463	357.881566159975	599.982700953184	39.409652925871	277.887593972453	687.061192522886	96.528576766203	304.663281228218	811.171868012569	37.860215815702	272.259674055778	921.966717939443	1134.158554245712	76.316395189592	1178.269139437238	1122.270448969818	100.452159597536	670.188984306025	1106.063615684422	684.956611752654	664.107285895134	845.264783768235	696.006627366179	
20	19.740500000000	607.487183411331	1012.547420006364	400.622386219702	839.300927186737	1433.333132619858	257.955434942064	910.853032529005	1355.898683031890	431.203390352436	804.308783149262	1431.680127397969	591.262575822336	801.335210736208	1492.476321400103	417.343958998148	814.203261994987	941.953143934750	552.242667416153	840.933860823180	953.041447755052	279.153362659976	876.612983444645	759.599805698094	530.398237287193	818.305350446303	644.439647203672	599.153573398224	905.658264017175	598.358743067954	524.513240640347	928.494179956394	510.322394903941	547.354742591674	852.830088051073	728.546083652384	315.454630460878	752.821004560565	625.699700209225	242.738222242682	813.180738794131	536.935629538824	316.190804386372	800.843075032826	467.175636222078	323.479434904658	758.633531079684	401.015136234946	309.958890052463	651.563206880386	306.975744298896	252.874674599856	674.714520120350	187.296747006372	323.106857805619	896.713369771355	421.419935988325	557.102707913715	820.155623898006	320.170297783760	618.055069110292	874.630603368627	222.460998377119	570.778168395716	751.643298570630	50.426089811510	538.192297107652	919.383928764382	109.270152654384	590.797603458867	830.534287148223	40.398337774201	616.982445931426	1036.551194708822	59.815745172483	623.900354867969	520.563118063151	46.035372637030	357.772736576398	593.939793512789	39.013422989300	277.804910074627	680.876285998768	96.373764795601	304.709036399380	805.174946667447	37.994761493879	272.244931074953	929.130869526867	1134.079230775546	82.922020773446	1184.764976128707	1133.330495671356	111.612733310099	660.079730717314	1109.227894624317	685.892684354496	648.402966715701	848.531430100626	696.415328687635	
21	19.760000000000	609.247955585727	1010.907841585056	404.556312225363	841.268416328602	1431.803914055410	263.308971850763	911.256154723456	1354.983234360041	437.473333696243	802.931829647683	1431.064351957230	596.253665017351	801.649823251023	1491.236165642059	422.139042301075	814.849358398829	940.766984340842	558.016252404382	843.630533672958	951.676034263761	285.054473002139	876.935392642877	758.037045255128	536.653687597604	817.515293263873	642.416577229823	603.992103654180	905.588887903953	597.033531394247	529.897508359247	928.128580290711	510.380663160920	551.313704281134	851.913675351533	726.179641959435	320.434821666620	750.709484604575	625.286283827488	245.812108551161	808.938771602257	535.289871775368	319.092014537459	795.341522258832	465.937002944835	325.874939863143	753.257983481449	400.316583510647	311.754026145390	645.857176940572	306.876439776714	253.937707475134	668.677044176643	186.713416103334	323.665082689179	899.841334897390	420.709688839401	560.882288782841	827.275283990834	316.350236284106	622.443504081136	884.683951701859	220.511301769265	574.132305147674	766.351897122445	45.683201036777	542.402224317740	933.586586852521	107.677906704928	592.998683620259	846.352677572888	37.195084371010	620.284445631986	1052.374746890724	60.527254176735	624.821377018000	514.499533471918	45.271585460547	357.727024506412	587.874100796123	38.512753951228	277.754118210947	674.664152516907	96.168701944980	304.760666599911	799.180913337471	38.141695311015	272.216021622250	935.705098500280	1133.457537790899	90.071584255342	1190.237861622547	1143.526428357031	122.774516720525	651.768145502260	1111.435307554360	687.184671086382	635.715001385351	850.787017661821	697.014633370074	
